<?xml version="1.0" standalone="no"?>
<!DOCTYPE svg PUBLIC "-//W3C//DTD SVG 20010904//EN"
 "http://www.w3.org/TR/2001/REC-SVG-20010904/DTD/svg10.dtd">
<svg version="1.0" xmlns="http://www.w3.org/2000/svg"
 width="512.000000pt" height="512.000000pt" viewBox="0 0 512.000000 512.000000"
 preserveAspectRatio="xMidYMid meet">
<metadata>
Created by potrace 1.16, written by Peter Selinger 2001-2019
</metadata>
<g transform="translate(0.000000,512.000000) scale(0.100000,-0.100000)"
fill="#000000" stroke="none">
<path d="M593 5073 c-4 -27 -8 -142 -8 -258 1 -178 4 -225 22 -305 87 -385
279 -687 589 -928 23 -18 44 -32 48 -32 7 0 86 117 86 128 0 5 -19 22 -42 37
-60 40 -224 207 -286 290 -115 157 -212 388 -247 590 -18 104 -25 338 -11 352
16 16 54 -47 70 -117 32 -138 90 -278 159 -380 114 -168 315 -332 496 -405
103 -41 96 -43 120 28 11 35 21 68 21 74 0 6 -26 21 -57 34 -135 53 -239 125
-346 239 -119 126 -188 254 -233 434 -33 131 -67 187 -144 234 -50 30 -61 32
-141 32 l-88 0 -8 -47z"/>
<path d="M4315 5103 c-43 -22 -104 -82 -125 -124 -11 -20 -29 -77 -41 -125
-79 -319 -294 -567 -581 -674 -32 -12 -58 -24 -58 -28 -1 -22 45 -142 54 -142
21 0 157 60 218 95 199 117 375 313 458 511 18 43 45 125 60 181 50 188 90
205 90 38 0 -247 -73 -518 -195 -724 -90 -151 -247 -322 -368 -401 -21 -15
-35 -31 -32 -38 9 -23 77 -122 84 -122 4 0 43 29 86 64 405 323 624 835 576
1346 -7 69 -14 133 -17 143 -5 14 -18 17 -92 17 -59 -1 -97 -6 -117 -17z"/>
<path d="M2260 3874 l0 -676 -555 7 -555 7 0 -306 0 -306 35 0 c19 0 35 -2 35
-5 0 -3 -12 -28 -26 -56 -18 -36 -30 -49 -41 -45 -57 22 -56 24 -95 -86 -20
-57 -44 -128 -52 -158 -51 -186 -63 -457 -27 -599 77 -296 234 -536 570 -871
195 -195 382 -351 616 -517 163 -115 379 -253 396 -253 18 0 248 147 411 263
576 411 986 860 1127 1235 53 140 66 214 65 362 -2 204 -33 369 -105 558 -29
74 -35 83 -53 77 -60 -19 -64 -18 -71 14 -3 16 -15 42 -26 56 l-20 25 40 0 41
0 0 305 0 305 -332 -6 c-183 -4 -431 -3 -550 1 l-218 7 0 669 0 669 -305 0
-305 0 0 -676z m450 -149 l0 -675 550 0 550 0 0 -150 0 -150 -550 0 -550 0 0
-192 0 -193 -49 -57 c-27 -31 -60 -71 -74 -89 l-24 -31 -77 92 -76 92 0 189 0
189 -550 0 -550 0 0 150 0 150 550 0 550 0 0 675 0 675 150 0 150 0 0 -675z
m-450 -1266 l0 -141 31 -39 31 -39 -40 0 c-57 0 -157 -33 -312 -104 -158 -72
-316 -160 -391 -216 l-54 -40 -3 300 -2 300 -40 0 -40 0 0 60 0 60 410 0 410
0 0 -141z m1420 82 l0 -60 -37 -3 -38 -3 -3 -297 -2 -297 -97 65 c-105 70
-358 200 -493 253 -47 18 -111 36 -142 39 -32 2 -58 8 -58 12 0 3 11 17 25 30
24 23 25 27 25 172 l0 148 410 0 410 0 0 -59z m323 -671 c2 -151 1 -157 -31
-250 -141 -405 -548 -841 -1219 -1304 l-112 -77 -123 88 c-560 400 -954 818
-1103 1172 -60 141 -77 228 -75 376 2 219 17 246 19 35 l1 -185 388 -388 389
-389 210 151 c115 83 212 151 215 151 3 0 99 -68 214 -150 l208 -150 91 90 91
91 54 -40 55 -39 117 119 c65 66 118 124 118 129 0 14 80 120 91 120 4 0 11
-5 15 -11 4 -7 78 60 185 167 l179 179 1 180 c1 145 3 171 11 135 6 -25 11
-115 11 -200z m-1601 160 c61 -63 63 -150 6 -216 -38 -44 -58 -52 -172 -70
-111 -18 -408 -36 -419 -25 -15 15 22 69 80 116 112 92 409 250 448 239 11 -3
37 -23 57 -44z m773 -75 c182 -89 351 -202 333 -220 -14 -14 -220 -23 -361
-15 -173 9 -177 11 -218 76 -40 65 -41 183 -3 241 l14 23 53 -21 c28 -11 111
-49 182 -84z m-574 -248 c70 -82 177 -115 453 -137 71 -5 174 -10 230 -10
l101 -1 -203 -199 c-111 -110 -207 -200 -213 -200 -6 0 -96 61 -201 136 -104
74 -195 137 -201 139 -7 3 -102 -60 -212 -140 l-200 -144 -203 202 -202 202
162 7 c390 16 528 50 610 148 18 22 35 40 38 40 3 0 22 -19 41 -43z"/>
<path d="M2490 4095 l0 -75 75 0 75 0 0 75 0 75 -75 0 -75 0 0 -75z"/>
<path d="M2490 3795 l0 -75 75 0 75 0 0 75 0 75 -75 0 -75 0 0 -75z"/>
<path d="M2490 3495 l0 -75 75 0 75 0 0 75 0 75 -75 0 -75 0 0 -75z"/>
<path d="M2490 3195 l0 -75 75 0 75 0 0 75 0 75 -75 0 -75 0 0 -75z"/>
<path d="M1590 2895 l0 -75 75 0 75 0 0 75 0 75 -75 0 -75 0 0 -75z"/>
<path d="M1890 2895 l0 -75 75 0 75 0 0 75 0 75 -75 0 -75 0 0 -75z"/>
<path d="M2190 2895 l0 -75 75 0 75 0 0 75 0 75 -75 0 -75 0 0 -75z"/>
<path d="M2490 2895 l0 -75 75 0 75 0 0 75 0 75 -75 0 -75 0 0 -75z"/>
<path d="M2790 2895 l0 -75 75 0 75 0 0 75 0 75 -75 0 -75 0 0 -75z"/>
<path d="M3090 2895 l0 -75 75 0 75 0 0 75 0 75 -75 0 -75 0 0 -75z"/>
<path d="M3390 2895 l0 -75 75 0 75 0 0 75 0 75 -75 0 -75 0 0 -75z"/>
<path d="M2490 2595 l0 -75 75 0 75 0 0 75 0 75 -75 0 -75 0 0 -75z"/>
<path d="M1990 4230 c-122 -64 -227 -144 -322 -247 -79 -85 -180 -229 -228
-322 -36 -72 -88 -226 -96 -283 l-6 -45 73 -12 c40 -6 76 -8 80 -4 4 4 12 33
18 63 38 183 161 394 313 534 88 83 156 130 265 185 l82 41 -24 65 c-14 36
-25 68 -25 70 0 15 -46 -1 -130 -45z"/>
<path d="M2981 4210 c-13 -39 -22 -72 -20 -74 3 -3 35 -19 73 -36 275 -123
499 -397 579 -706 19 -73 24 -83 42 -79 11 2 46 7 78 10 31 4 57 9 57 12 0 21
-47 179 -71 241 -111 280 -335 527 -598 659 -47 24 -92 43 -101 43 -10 0 -23
-23 -39 -70z"/>
</g>
</svg>
